<svg xmlns="http://www.w3.org/2000/svg" viewBox="0 0 320 120" role="img" aria-labelledby="title desc">
  <title id="title">Aramark logo</title>
  <desc id="desc">A stylised red star with the word Aramark.</desc>
  <g fill="none" fill-rule="evenodd">
    <path
      fill="#E4002B"
      d="M118 76c-14 5-35 10-53 7-12-2-23-8-32-17-3-4-2-7 2-5 16 8 32 11 53 7l-7-18c-1-2 1-4 4-3l20 8 12-19c2-2 5-2 6 1l8 21 20-6c4-1 6 1 3 4-11 10-23 16-36 20l8 20c1 3-1 5-4 3l-18-13-17 14c-2 1-5 0-4-3l7-21Z"
    />
    <text
      x="156"
      y="76"
      font-family="'Arial Black', 'Arial Bold', Gadget, sans-serif"
      font-size="40"
      fill="#111827"
      letter-spacing="1"
    >
      aramark
    </text>
  </g>
</svg>
