<svg xmlns="http://www.w3.org/2000/svg" viewBox="0 0 1200 720" fill="none">
  <rect width="1200" height="720" rx="32" fill="#0F172A"/>
  <rect x="64" y="56" width="1072" height="608" rx="28" fill="#0B1220" stroke="#1E293B" stroke-width="2"/>
  <rect x="96" y="96" width="460" height="528" rx="20" fill="#111827" stroke="#1F2937"/>
  <rect x="584" y="96" width="520" height="528" rx="20" fill="#111827" stroke="#1F2937"/>
  <rect x="120" y="120" width="180" height="18" rx="9" fill="#38BDF8" fill-opacity="0.8"/>
  <rect x="120" y="160" width="312" height="52" rx="14" fill="#0EA5E9" fill-opacity="0.1" stroke="#38BDF8" stroke-opacity="0.6"/>
  <rect x="120" y="230" width="312" height="52" rx="14" fill="#0EA5E9" fill-opacity="0.1" stroke="#38BDF8" stroke-opacity="0.6"/>
  <rect x="120" y="300" width="312" height="52" rx="14" fill="#0EA5E9" fill-opacity="0.1" stroke="#38BDF8" stroke-opacity="0.6"/>
  <rect x="120" y="370" width="312" height="92" rx="16" fill="#0EA5E9" fill-opacity="0.1" stroke="#38BDF8" stroke-opacity="0.6"/>
  <rect x="120" y="488" width="140" height="44" rx="14" fill="#22C55E" fill-opacity="0.8"/>
  <rect x="280" y="488" width="152" height="44" rx="14" fill="#1F2937" stroke="#475569"/>
  <rect x="608" y="120" width="180" height="18" rx="9" fill="#A855F7" fill-opacity="0.8"/>
  <rect x="608" y="160" width="464" height="120" rx="18" fill="#1E293B"/>
  <rect x="608" y="304" width="464" height="120" rx="18" fill="#1E293B"/>
  <rect x="608" y="448" width="464" height="120" rx="18" fill="#1E293B"/>
  <rect x="632" y="186" width="124" height="18" rx="9" fill="#E2E8F0" fill-opacity="0.7"/>
  <rect x="632" y="216" width="320" height="16" rx="8" fill="#94A3B8" fill-opacity="0.6"/>
  <rect x="632" y="242" width="260" height="12" rx="6" fill="#475569" fill-opacity="0.9"/>
  <rect x="632" y="330" width="124" height="18" rx="9" fill="#22C55E" fill-opacity="0.8"/>
  <rect x="632" y="360" width="320" height="16" rx="8" fill="#94A3B8" fill-opacity="0.6"/>
  <rect x="632" y="386" width="260" height="12" rx="6" fill="#475569" fill-opacity="0.9"/>
  <rect x="632" y="474" width="124" height="18" rx="9" fill="#F97316" fill-opacity="0.8"/>
  <rect x="632" y="504" width="320" height="16" rx="8" fill="#94A3B8" fill-opacity="0.6"/>
  <rect x="632" y="530" width="260" height="12" rx="6" fill="#475569" fill-opacity="0.9"/>
  <rect x="968" y="482" width="80" height="32" rx="12" fill="#22C55E" fill-opacity="0.9"/>
  <rect x="968" y="338" width="80" height="32" rx="12" fill="#0EA5E9" fill-opacity="0.9"/>
  <rect x="968" y="194" width="80" height="32" rx="12" fill="#A855F7" fill-opacity="0.9"/>
</svg>
