<svg xmlns="http://www.w3.org/2000/svg" viewBox="0 0 1400 760" fill="none">
  <defs>
    <linearGradient id="bg" x1="0" y1="0" x2="0" y2="1">
      <stop offset="0" stop-color="#F8FAFC"/>
      <stop offset="1" stop-color="#EEF2FF"/>
    </linearGradient>
    <filter id="shadow" x="-10%" y="-10%" width="120%" height="120%" color-interpolation-filters="sRGB">
      <feDropShadow dx="0" dy="8" stdDeviation="16" flood-color="#0F172A" flood-opacity="0.12"/>
    </filter>
  </defs>
  <rect width="1400" height="760" rx="32" fill="url(#bg)"/>
  <!-- Sidebar -->
  <g filter="url(#shadow)">
    <rect x="40" y="32" width="260" height="696" rx="24" fill="#0F172A"/>
  </g>
  <text x="80" y="92" fill="#F8FAFC" font-size="26" font-weight="700" font-family="Inter, sans-serif">Offyse</text>
  <text x="120" y="122" fill="#CBD5E1" font-size="14" font-family="Inter, sans-serif">Staff manager</text>
  <g fill="#E2E8F0" font-family="Inter, sans-serif" font-size="15" font-weight="600">
    <text x="80" y="182">Dashboard</text>
    <text x="80" y="232">Employees</text>
    <text x="80" y="282">Reports</text>
    <text x="80" y="332">Automation</text>
  </g>
  <rect x="70" y="248" width="180" height="34" rx="10" fill="#1E293B" opacity="0.6"/>
  <rect x="70" y="298" width="160" height="34" rx="10" fill="#1E293B" opacity="0.5"/>
  <rect x="70" y="348" width="190" height="34" rx="10" fill="#1E293B" opacity="0.5"/>
  <rect x="70" y="398" width="170" height="34" rx="10" fill="#1E293B" opacity="0.5"/>
  <rect x="70" y="450" width="170" height="34" rx="10" fill="#0EA5E9" opacity="0.12" stroke="#38BDF8" stroke-width="2"/>
  <text x="100" y="472" fill="#E0F2FE" font-size="14" font-family="Inter, sans-serif">Add booking</text>

  <!-- Header controls -->
  <g fill="#0F172A" font-family="Inter, sans-serif">
    <text x="340" y="78" font-size="14" opacity="0.6">Help</text>
    <text x="400" y="78" font-size="14" opacity="0.6">Logout</text>
  </g>
  <rect x="1120" y="46" width="86" height="32" rx="16" fill="#0F172A" opacity="0.08" stroke="#E2E8F0"/>
  <text x="1140" y="67" fill="#0F172A" font-size="13" font-family="Inter, sans-serif">Light Mode</text>
  <circle cx="1240" cy="62" r="22" fill="#E0F2FE" stroke="#38BDF8" stroke-width="2"/>
  <text x="1226" y="67" fill="#0F172A" font-size="14" font-weight="600" font-family="Inter, sans-serif">RW</text>

  <!-- Main card -->
  <g filter="url(#shadow)">
    <rect x="320" y="32" width="1040" height="696" rx="24" fill="#FFFFFF"/>
  </g>
  <rect x="320" y="32" width="1040" height="72" rx="24" fill="#F8FAFC" stroke="#E2E8F0"/>
  <text x="360" y="77" fill="#0F172A" font-size="18" font-weight="700" font-family="Inter, sans-serif">Dashboard</text>

  <!-- Content split -->
  <rect x="360" y="120" width="480" height="560" rx="20" fill="#F8FAFC" stroke="#E2E8F0"/>
  <rect x="860" y="120" width="460" height="560" rx="20" fill="#FFFFFF" stroke="#E2E8F0"/>

  <!-- Form header -->
  <text x="386" y="156" fill="#0F172A" font-size="22" font-weight="700" font-family="Inter, sans-serif">Add Booking</text>
  <text x="386" y="184" fill="#475569" font-size="14" font-family="Inter, sans-serif">Choose the employee, booking type, and date/time range. You can manage availability for all employees.</text>

  <!-- Form fields -->
  <g font-family="Inter, sans-serif" font-size="13" fill="#0F172A" opacity="0.9">
    <text x="386" y="232">EMPLOYEE</text>
    <rect x="386" y="244" width="392" height="38" rx="10" fill="#FFFFFF" stroke="#E2E8F0"/>
    <rect x="404" y="252" width="20" height="20" rx="10" fill="#E0F2FE" stroke="#38BDF8"/>
    <text x="432" y="268">Bright Xu</text>
    <text x="386" y="302">BOOKING TYPE</text>
    <rect x="386" y="314" width="392" height="38" rx="10" fill="#FFFFFF" stroke="#E2E8F0"/>
    <text x="404" y="338">Vacation</text>
    <text x="386" y="372">ALL DAY BOOKING</text>
    <rect x="386" y="384" width="392" height="20" rx="10" fill="#E0F2FE" stroke="#38BDF8"/>
    <text x="386" y="430">BOOKING DATES</text>
    <rect x="386" y="442" width="188" height="38" rx="10" fill="#FFFFFF" stroke="#E2E8F0"/>
    <rect x="590" y="442" width="188" height="38" rx="10" fill="#FFFFFF" stroke="#E2E8F0"/>
    <text x="400" y="466" opacity="0.6">mm/dd/yyyy</text>
    <text x="604" y="466" opacity="0.6">mm/dd/yyyy</text>
    <rect x="386" y="512" width="392" height="44" rx="12" fill="#0EA5E9"/>
    <text x="548" y="540" fill="#F8FAFC" font-size="15" font-weight="700">Add booking</text>
  </g>

  <!-- Calendar header -->
  <text x="880" y="156" fill="#0F172A" font-size="18" font-weight="700" font-family="Inter, sans-serif">Calendar View</text>
  <g fill="#334155" font-size="12" font-family="Inter, sans-serif">
    <text x="880" y="190">Today</text>
    <text x="928" y="190">Back</text>
    <text x="968" y="190">Next</text>
  </g>
  <text x="1080" y="190" fill="#0F172A" font-size="13" font-family="Inter, sans-serif">November 2024</text>
  <g fill="#94A3B8" font-size="12" font-family="Inter, sans-serif">
    <text x="880" y="230">Sun</text>
    <text x="970" y="230">Mon</text>
    <text x="1060" y="230">Tue</text>
    <text x="1150" y="230">Wed</text>
    <text x="1240" y="230">Thu</text>
    <text x="1330" y="230">Fri</text>
    <text x="1420" y="230">Sat</text>
  </g>
  <!-- Calendar grid -->
  <g stroke="#E2E8F0" stroke-width="1">
    <rect x="880" y="240" width="420" height="380" rx="12" fill="#FFFFFF"/>
    <path d="M938 240v380"/>
    <path d="M996 240v380"/>
    <path d="M1054 240v380"/>
    <path d="M1112 240v380"/>
    <path d="M1170 240v380"/>
    <path d="M1228 240v380"/>
    <path d="M1286 240v380"/>
    <path d="M1344 240v380"/>
    <path d="M880 292h420"/>
    <path d="M880 344h420"/>
    <path d="M880 396h420"/>
    <path d="M880 448h420"/>
    <path d="M880 500h420"/>
    <path d="M880 552h420"/>
    <path d="M880 604h420"/>
  </g>
  <g fill="#475569" font-size="12" font-family="Inter, sans-serif">
    <text x="888" y="266">27</text>
    <text x="946" y="266">28</text>
    <text x="1004" y="266">29</text>
    <text x="1062" y="266">30</text>
    <text x="1120" y="266">31</text>
    <text x="1180" y="266">1</text>
    <text x="1240" y="266">2</text>
  </g>
  <g fill="#0EA5E9" font-size="12" font-family="Inter, sans-serif">
    <rect x="892" y="406" width="120" height="18" rx="9" fill="#E0F2FE"/>
    <text x="904" y="420">Emilio</text>
    <rect x="1040" y="458" width="110" height="18" rx="9" fill="#0EA5E9" opacity="0.18"/>
    <text x="1052" y="472">Pete</text>
    <rect x="1186" y="510" width="100" height="18" rx="9" fill="#FACC15" opacity="0.25"/>
    <text x="1198" y="524" fill="#854D0E">Blackout</text>
    <rect x="930" y="562" width="150" height="18" rx="9" fill="#22C55E" opacity="0.22"/>
    <text x="944" y="576" fill="#166534">Sam</text>
  </g>
  <rect x="1224" y="354" width="56" height="32" rx="10" fill="#0EA5E9" opacity="0.12" stroke="#38BDF8" stroke-width="2"/>
  <text x="1235" y="374" fill="#0EA5E9" font-size="12" font-family="Inter, sans-serif">28</text>
</svg>
