<svg xmlns="http://www.w3.org/2000/svg" viewBox="0 0 1200 720" fill="none">
  <rect width="1200" height="720" rx="32" fill="#0F172A"/>
  <rect x="48" y="48" width="1104" height="624" rx="30" fill="#0B1220" stroke="#1E293B" stroke-width="2"/>
  <rect x="88" y="96" width="1024" height="92" rx="20" fill="#111827" stroke="#1F2937"/>
  <rect x="116" y="124" width="220" height="36" rx="12" fill="#0EA5E9" fill-opacity="0.85"/>
  <rect x="360" y="124" width="180" height="36" rx="12" fill="#1F2937" stroke="#334155"/>
  <rect x="560" y="124" width="140" height="36" rx="12" fill="#1F2937" stroke="#334155"/>
  <rect x="720" y="124" width="160" height="36" rx="12" fill="#22C55E" fill-opacity="0.75"/>
  <rect x="904" y="124" width="120" height="36" rx="12" fill="#0EA5E9" fill-opacity="0.6"/>
  <g>
    <rect x="88" y="212" width="1024" height="96" rx="18" fill="#111827" stroke="#1F2937"/>
    <rect x="112" y="236" width="56" height="48" rx="14" fill="#A855F7" fill-opacity="0.4"/>
    <rect x="188" y="236" width="220" height="14" rx="7" fill="#E2E8F0" fill-opacity="0.8"/>
    <rect x="188" y="260" width="320" height="12" rx="6" fill="#94A3B8" fill-opacity="0.7"/>
    <rect x="188" y="284" width="200" height="10" rx="5" fill="#475569" fill-opacity="0.9"/>
    <rect x="828" y="240" width="124" height="24" rx="10" fill="#22C55E" fill-opacity="0.9"/>
    <rect x="972" y="240" width="108" height="24" rx="10" fill="#0EA5E9" fill-opacity="0.9"/>
  </g>
  <g>
    <rect x="88" y="324" width="1024" height="96" rx="18" fill="#111827" stroke="#1F2937"/>
    <rect x="112" y="348" width="56" height="48" rx="14" fill="#22C55E" fill-opacity="0.35"/>
    <rect x="188" y="348" width="220" height="14" rx="7" fill="#E2E8F0" fill-opacity="0.8"/>
    <rect x="188" y="372" width="320" height="12" rx="6" fill="#94A3B8" fill-opacity="0.7"/>
    <rect x="188" y="396" width="200" height="10" rx="5" fill="#475569" fill-opacity="0.9"/>
    <rect x="828" y="352" width="124" height="24" rx="10" fill="#F97316" fill-opacity="0.9"/>
    <rect x="972" y="352" width="108" height="24" rx="10" fill="#475569" fill-opacity="0.9"/>
  </g>
  <g>
    <rect x="88" y="436" width="1024" height="96" rx="18" fill="#111827" stroke="#1F2937"/>
    <rect x="112" y="460" width="56" height="48" rx="14" fill="#0EA5E9" fill-opacity="0.35"/>
    <rect x="188" y="460" width="220" height="14" rx="7" fill="#E2E8F0" fill-opacity="0.8"/>
    <rect x="188" y="484" width="320" height="12" rx="6" fill="#94A3B8" fill-opacity="0.7"/>
    <rect x="188" y="508" width="200" height="10" rx="5" fill="#475569" fill-opacity="0.9"/>
    <rect x="828" y="464" width="124" height="24" rx="10" fill="#22C55E" fill-opacity="0.9"/>
    <rect x="972" y="464" width="108" height="24" rx="10" fill="#F59E0B" fill-opacity="0.9"/>
  </g>
  <rect x="88" y="548" width="1024" height="96" rx="18" fill="#111827" stroke="#1F2937"/>
  <rect x="112" y="572" width="56" height="48" rx="14" fill="#38BDF8" fill-opacity="0.35"/>
  <rect x="188" y="572" width="220" height="14" rx="7" fill="#E2E8F0" fill-opacity="0.8"/>
  <rect x="188" y="596" width="320" height="12" rx="6" fill="#94A3B8" fill-opacity="0.7"/>
  <rect x="188" y="620" width="200" height="10" rx="5" fill="#475569" fill-opacity="0.9"/>
  <rect x="828" y="576" width="124" height="24" rx="10" fill="#475569" fill-opacity="0.9"/>
  <rect x="972" y="576" width="108" height="24" rx="10" fill="#0EA5E9" fill-opacity="0.9"/>
</svg>
