<svg xmlns="http://www.w3.org/2000/svg" viewBox="0 0 1200 720" fill="none">
  <rect width="1200" height="720" rx="32" fill="#0F172A"/>
  <rect x="32" y="32" width="1136" height="656" rx="24" fill="#111827" stroke="#1F2937" stroke-width="2"/>
  <rect x="56" y="64" width="1088" height="72" rx="16" fill="#0EA5E9" fill-opacity="0.1" stroke="#38BDF8" stroke-opacity="0.4"/>
  <rect x="76" y="88" width="180" height="28" rx="10" fill="#38BDF8" fill-opacity="0.8"/>
  <rect x="980" y="80" width="140" height="40" rx="12" fill="#22C55E" fill-opacity="0.75"/>
  <rect x="56" y="160" width="1088" height="496" rx="20" fill="#0B1220" stroke="#1E293B"/>
  <g fill="#1F2937">
    <rect x="92" y="196" width="984" height="52" rx="12"/>
    <rect x="92" y="264" width="984" height="52" rx="12"/>
    <rect x="92" y="332" width="984" height="52" rx="12"/>
    <rect x="92" y="400" width="984" height="52" rx="12"/>
    <rect x="92" y="468" width="984" height="52" rx="12"/>
    <rect x="92" y="536" width="984" height="52" rx="12"/>
  </g>
  <g fill="#0EA5E9">
    <rect x="154" y="206" width="180" height="32" rx="10" fill-opacity="0.25"/>
    <rect x="382" y="274" width="220" height="32" rx="10" fill-opacity="0.35"/>
    <rect x="188" y="342" width="280" height="32" rx="10" fill-opacity="0.45"/>
    <rect x="520" y="410" width="220" height="32" rx="10" fill-opacity="0.28"/>
    <rect x="312" y="478" width="260" height="32" rx="10" fill-opacity="0.32"/>
    <rect x="720" y="546" width="220" height="32" rx="10" fill-opacity="0.4"/>
  </g>
  <g fill="#22C55E">
    <rect x="700" y="206" width="180" height="32" rx="10" fill-opacity="0.2"/>
    <rect x="840" y="274" width="160" height="32" rx="10" fill-opacity="0.18"/>
    <rect x="860" y="342" width="150" height="32" rx="10" fill-opacity="0.16"/>
    <rect x="820" y="410" width="180" height="32" rx="10" fill-opacity="0.2"/>
    <rect x="680" y="478" width="200" height="32" rx="10" fill-opacity="0.22"/>
  </g>
  <rect x="92" y="196" width="72" height="392" rx="12" fill="#111827" stroke="#1F2937"/>
  <rect x="106" y="214" width="44" height="44" rx="12" fill="#1E40AF" fill-opacity="0.4"/>
  <rect x="106" y="274" width="44" height="44" rx="12" fill="#22C55E" fill-opacity="0.25"/>
  <rect x="106" y="334" width="44" height="44" rx="12" fill="#F59E0B" fill-opacity="0.3"/>
  <rect x="106" y="394" width="44" height="44" rx="12" fill="#38BDF8" fill-opacity="0.25"/>
  <rect x="106" y="454" width="44" height="44" rx="12" fill="#A855F7" fill-opacity="0.25"/>
  <rect x="106" y="514" width="44" height="44" rx="12" fill="#F97316" fill-opacity="0.2"/>
  <rect x="56" y="64" width="1088" height="44" rx="12" fill="#111827" stroke="#1F2937"/>
  <rect x="78" y="78" width="140" height="16" rx="8" fill="#64748B"/>
  <rect x="234" y="78" width="96" height="16" rx="8" fill="#475569"/>
  <rect x="880" y="78" width="88" height="16" rx="8" fill="#64748B"/>
  <rect x="986" y="78" width="72" height="16" rx="8" fill="#22C55E" fill-opacity="0.8"/>
</svg>
